<svg width="512" height="512" viewBox="0 0 512 512" fill="none" xmlns="http://www.w3.org/2000/svg">
<g clip-path="url(#clip0_153_269)">
<path d="M255.625 3.68739C256.643 3.68955 257.661 3.6917 258.71 3.69392C273.319 3.74359 287.651 3.99449 302 6.99989C302.975 7.19857 303.95 7.39724 304.954 7.60194C353.336 17.7226 397.324 39.6391 433 73.9999C433.989 74.9481 433.989 74.9481 434.998 75.9154C444.486 85.0599 453.226 94.3572 461 105C461.858 106.151 462.716 107.302 463.574 108.453C469.612 116.644 474.971 125.158 480 134C480.364 134.632 480.729 135.264 481.104 135.914C502.71 173.663 512.477 216.429 512.312 259.625C512.31 260.643 512.308 261.661 512.306 262.709C512.256 277.319 512.005 291.651 509 306C508.702 307.462 508.702 307.462 508.398 308.954C498.277 357.336 476.361 401.324 442 437C441.368 437.659 440.736 438.319 440.084 438.998C430.94 448.486 421.643 457.226 411 465C409.849 465.858 408.698 466.716 407.547 467.574C399.357 473.612 390.855 478.994 382 484C381.293 484.402 380.586 484.804 379.857 485.219C356.722 498.244 331.55 506.993 305.562 512.312C304.844 512.46 304.125 512.607 303.384 512.759C288.708 515.548 274.183 516.349 259.273 516.316C256.333 516.312 253.395 516.336 250.455 516.361C237.082 516.406 224.186 515.2 211 513C209.294 512.718 209.294 512.718 207.554 512.43C164.287 504.658 123.237 484.671 90 456C89.2549 455.366 88.5099 454.731 87.7422 454.078C74.2372 442.267 61.5658 429.516 51 415C50.1435 413.85 49.2867 412.7 48.4297 411.551C42.3897 403.361 37.0063 394.856 32 386C31.5978 385.293 31.1956 384.585 30.7813 383.857C17.7558 360.721 9.007 335.55 3.68751 309.562C3.54016 308.843 3.3928 308.125 3.24098 307.384C0.267121 291.738 -0.372992 276.264 -0.312488 260.375C-0.310333 259.357 -0.308178 258.339 -0.305957 257.29C-0.256286 242.681 -0.00538969 228.349 3.00001 214C3.19869 213.025 3.39737 212.05 3.60206 211.046C13.7227 162.664 35.6392 118.676 70 82.9999C70.6321 82.3405 71.2643 81.6812 71.9155 81.0018C81.06 71.5136 90.3574 62.7737 101 54.9999C102.151 54.1418 103.302 53.2838 104.453 52.4257C112.643 46.3881 121.145 41.0053 130 35.9999C130.707 35.5977 131.414 35.1955 132.143 34.7811C155.278 21.7557 180.45 13.0069 206.438 7.68739C207.156 7.54003 207.875 7.39268 208.616 7.24086C224.262 4.267 239.736 3.62689 255.625 3.68739Z" fill="#FEFEFE"/>
<path d="M273.25 86.4373C274.507 87.2807 275.758 88.1345 277 88.9998C278.166 89.772 279.332 90.543 280.5 91.3123C281.325 91.8692 282.15 92.4261 283 92.9998C284.176 92.0408 284.176 92.0408 285.375 91.0623C289.478 87.8384 291.765 87.6508 297 87.9998C305.814 90.938 311.218 100.456 316.438 107.687C321.636 114.824 326.935 121.872 332.313 128.875C350.023 151.987 350.023 151.987 350.328 159.734C349.68 164.208 347.799 167.25 344.531 170.316C343.031 171.428 343.031 171.428 341.5 172.562C340.943 172.979 340.385 173.395 339.811 173.824C334.001 178.111 328.002 182.131 322.023 186.175C316.312 190.051 310.788 194.066 305.439 198.429C303.179 200.199 300.941 201.621 298.39 202.934C293.831 205.411 289.171 208.005 287.203 213.04C285.912 219.143 286.228 225.36 286.382 231.561C286.383 233.648 286.377 235.735 286.366 237.822C286.352 243.47 286.424 249.114 286.51 254.761C286.585 260.679 286.577 266.597 286.576 272.515C286.587 283.722 286.666 294.928 286.773 306.134C286.96 326.206 287.024 346.278 287.076 366.35C287.097 373.391 287.144 380.432 287.215 387.473C287.256 391.853 287.281 396.234 287.303 400.614C287.317 402.643 287.337 404.671 287.366 406.7C287.404 409.473 287.417 412.245 287.425 415.019C287.442 415.817 287.459 416.616 287.477 417.439C287.454 423.62 285.852 428.908 281.588 433.531C276.271 438.216 271.515 439.54 264.566 439.375C260.314 438.753 257.041 437.021 254 434C249.762 428.028 249.442 423.408 249.546 416.199C249.545 415.135 249.545 414.071 249.544 412.975C249.547 409.474 249.578 405.973 249.609 402.472C249.617 400.039 249.623 397.605 249.627 395.171C249.642 388.778 249.681 382.384 249.725 375.991C249.766 369.462 249.785 362.933 249.805 356.404C249.848 343.603 249.915 330.801 250 318C247.69 318 245.38 318 243 318C243.005 318.549 243.009 319.098 243.014 319.664C243.125 333.053 243.207 346.441 243.259 359.83C243.285 366.305 243.321 372.779 243.377 379.254C243.432 385.504 243.461 391.754 243.474 398.005C243.484 400.388 243.502 402.77 243.529 405.153C243.565 408.495 243.57 411.835 243.568 415.178C243.586 416.159 243.604 417.14 243.622 418.151C243.573 424.682 242.175 428.931 238 434C233.21 438.556 229.655 439.333 223.086 439.211C218.123 438.709 214.411 436.785 211.188 433.062C207.408 427.772 206.706 424.23 206.722 417.736C206.716 416.896 206.71 416.055 206.704 415.189C206.687 412.368 206.684 409.548 206.681 406.727C206.672 404.707 206.662 402.687 206.651 400.667C206.623 395.177 206.608 389.688 206.595 384.199C206.58 378.464 206.553 372.729 206.527 366.994C206.48 356.132 206.444 345.27 206.411 334.408C206.372 322.043 206.323 309.678 206.273 297.313C206.169 271.875 206.08 246.438 206 221C205.01 221 204.02 221 203 221C202.826 221.683 202.651 222.367 202.472 223.071C201.255 227.705 199.987 232.224 198.2 236.674C191.842 253 192.102 268.998 192.289 286.219C192.352 292.277 192.37 298.333 192.359 304.391C192.363 306.484 192.393 308.576 192.426 310.669C192.429 311.939 192.432 313.209 192.435 314.517C192.447 315.628 192.459 316.739 192.472 317.883C191.882 321.78 190.425 323.928 188 327C183.262 330.306 178.613 330.887 173 330C167.882 327.586 165.137 324.165 163 319C162.443 316.032 162.395 313.135 162.391 310.121C162.374 309.28 162.357 308.439 162.34 307.573C162.29 304.861 162.269 302.15 162.25 299.437C162.226 297.566 162.202 295.694 162.176 293.823C162.127 290.169 162.09 286.515 162.06 282.861C162.022 278.951 161.907 275.051 161.738 271.144C161.289 259.377 163.118 249.558 166.869 238.424C167.99 235.029 169.052 231.622 170.1 228.205C171.126 224.866 172.168 221.533 173.214 218.201C173.733 216.541 174.249 214.879 174.76 213.216C180.056 196.079 180.056 196.079 186 190C186.594 189.383 187.188 188.766 187.8 188.131C203.413 172.582 226.098 170.781 246.813 170.75C247.588 170.747 248.363 170.744 249.162 170.742C260.139 170.724 270.663 171.328 281.465 173.441C286.408 174.222 288.861 173.335 292.863 170.453C293.586 169.937 294.308 169.422 295.053 168.89C295.798 168.349 296.544 167.808 297.313 167.25C298.047 166.724 298.781 166.198 299.537 165.656C300.991 164.614 302.443 163.569 303.893 162.521C306.92 160.335 309.96 158.168 313 156C312.386 152.302 310.785 150.094 308.508 147.156C307.803 146.24 307.098 145.323 306.371 144.379C305.63 143.429 304.889 142.479 304.125 141.5C303.392 140.55 302.658 139.6 301.902 138.621C300.536 136.851 299.166 135.083 297.793 133.318C296.175 131.227 294.58 129.12 293 127C292.563 128.16 292.563 128.16 292.117 129.344C287.384 141.37 280.387 151.843 268.25 157.437C259.24 161.158 248.422 161.485 239.188 158.437C230.03 154.605 221.178 147.405 216.715 138.41C212.384 127.84 210.79 116.523 215.063 105.625C219.479 96.4215 225.003 89.8926 234 84.9998C234.749 84.586 235.498 84.1722 236.27 83.7459C247.99 78.1676 262.334 79.7769 273.25 86.4373Z" fill="#329F46"/>
</g>
<defs>
<clipPath id="clip0_153_269">
<rect width="512" height="512" fill="white"/>
</clipPath>
</defs>
</svg>
