<svg width="512" height="512" viewBox="0 0 512 512" fill="none" xmlns="http://www.w3.org/2000/svg">
<g clip-path="url(#clip0_153_270)">
<path d="M255.625 3.68739C256.643 3.68955 257.661 3.6917 258.71 3.69392C273.319 3.74359 287.651 3.99449 302 6.99989C302.975 7.19857 303.95 7.39724 304.954 7.60194C353.336 17.7226 397.324 39.6391 433 73.9999C433.989 74.9481 433.989 74.9481 434.998 75.9154C444.486 85.0599 453.226 94.3572 461 105C461.858 106.151 462.716 107.302 463.574 108.453C469.612 116.644 474.971 125.158 480 134C480.364 134.632 480.729 135.264 481.104 135.914C502.71 173.663 512.477 216.429 512.312 259.625C512.31 260.643 512.308 261.661 512.306 262.709C512.256 277.319 512.005 291.651 509 306C508.702 307.462 508.702 307.462 508.398 308.954C498.277 357.336 476.361 401.324 442 437C441.368 437.659 440.736 438.319 440.084 438.998C430.94 448.486 421.643 457.226 411 465C409.849 465.858 408.698 466.716 407.547 467.574C399.357 473.612 390.855 478.994 382 484C381.293 484.402 380.586 484.804 379.857 485.219C356.722 498.244 331.55 506.993 305.562 512.312C304.844 512.46 304.125 512.607 303.384 512.759C288.708 515.548 274.183 516.349 259.273 516.316C256.333 516.312 253.395 516.336 250.455 516.361C237.082 516.406 224.186 515.2 211 513C209.294 512.718 209.294 512.718 207.554 512.43C164.287 504.658 123.237 484.671 90 456C89.2549 455.366 88.5099 454.731 87.7422 454.078C74.2372 442.267 61.5658 429.516 51 415C50.1435 413.85 49.2867 412.7 48.4297 411.551C42.3897 403.361 37.0063 394.856 32 386C31.5978 385.293 31.1956 384.585 30.7813 383.857C17.7558 360.721 9.007 335.55 3.68751 309.562C3.54016 308.843 3.3928 308.125 3.24098 307.384C0.267121 291.738 -0.372992 276.264 -0.312488 260.375C-0.310333 259.357 -0.308178 258.339 -0.305957 257.29C-0.256286 242.681 -0.00538969 228.349 3.00001 214C3.19869 213.025 3.39737 212.05 3.60206 211.046C13.7227 162.664 35.6392 118.676 70 82.9999C70.6321 82.3405 71.2643 81.6812 71.9155 81.0018C81.06 71.5136 90.3574 62.7737 101 54.9999C102.151 54.1418 103.302 53.2838 104.453 52.4257C112.643 46.3881 121.145 41.0053 130 35.9999C130.707 35.5977 131.414 35.1955 132.143 34.7811C155.278 21.7557 180.45 13.0069 206.438 7.68739C207.156 7.54003 207.875 7.39268 208.616 7.24086C224.262 4.267 239.736 3.62689 255.625 3.68739Z" fill="#FEFEFE"/>
<path d="M275 176C275.955 176.525 276.91 177.051 277.894 177.592C288.823 183.606 299.681 189.741 310.409 196.108C315.691 199.241 321.004 202.317 326.327 205.379C329.678 207.307 333.025 209.241 336.371 211.176C340.687 213.67 345.013 216.145 349.348 218.605C351.315 219.736 353.283 220.868 355.25 222C356.597 222.755 356.597 222.755 357.971 223.525C364.139 227.101 369.669 231.008 372 238C372.536 242.611 372.473 246.053 370.375 250.25C363.131 258.638 363.131 258.638 357.903 259.243C351.386 259.443 347.369 258.281 341.875 254.875C341.118 254.43 340.36 253.986 339.58 253.528C337.924 252.554 336.274 251.57 334.628 250.579C331.904 248.942 329.163 247.34 326.414 245.746C322.41 243.423 318.412 241.091 314.418 238.75C306.456 234.089 298.461 229.487 290.465 224.886C289.431 224.291 288.397 223.695 287.332 223.082C286.422 222.558 285.511 222.035 284.574 221.495C282.035 220.02 279.517 218.513 277 217C277.009 217.751 277.018 218.502 277.027 219.275C277.107 226.367 277.168 233.458 277.207 240.549C277.228 244.195 277.256 247.84 277.302 251.485C277.345 255.006 277.369 258.527 277.38 262.048C277.39 264.038 277.422 266.029 277.453 268.02C277.456 279.171 277.456 279.171 273 284C271.859 285.328 271.859 285.328 270.695 286.684C269.847 287.592 268.999 288.501 268.125 289.437C267.654 289.945 267.183 290.452 266.697 290.975C265.136 292.654 263.568 294.327 262 296C260.863 297.218 259.726 298.437 258.59 299.656C256.219 302.198 253.846 304.738 251.473 307.277C247.816 311.192 244.183 315.129 240.555 319.07C237.821 322.037 235.076 324.991 232.316 327.934C231.692 328.6 231.067 329.266 230.424 329.953C229.22 331.237 228.014 332.52 226.807 333.801C225.976 334.686 225.976 334.686 225.129 335.59C224.645 336.104 224.161 336.618 223.662 337.148C223.114 337.759 222.565 338.37 222 339C221.179 339.892 220.358 340.785 219.511 341.704C216.628 345.198 215.19 348.904 213.688 353.141C213.252 354.322 213.252 354.322 212.807 355.528C212.184 357.22 211.567 358.914 210.955 360.609C209.989 363.281 209.005 365.947 208.017 368.611C205.067 376.578 202.156 384.558 199.28 392.552C198.156 395.661 197.013 398.764 195.866 401.865C195.336 403.315 194.815 404.767 194.303 406.223C191.039 415.505 187.809 422.284 178.902 427.145C175.085 428.861 171.073 428.599 167 428C160.396 425.272 155.861 420.523 153 414C150.749 403.401 156.344 393.024 160.188 383.437C160.917 381.58 161.646 379.721 162.372 377.862C163.851 374.081 165.339 370.304 166.832 366.529C168.878 361.336 170.859 356.121 172.816 350.894C173.404 349.331 173.992 347.767 174.579 346.203C175.407 343.999 176.234 341.793 177.055 339.586C177.805 337.57 178.566 335.558 179.328 333.547C179.961 331.858 179.961 331.858 180.606 330.136C182.947 324.869 186.183 320.596 190.063 316.375C190.845 315.519 191.627 314.663 192.434 313.781C193.704 312.404 193.704 312.404 195 311C196.876 308.959 198.751 306.917 200.625 304.875C201.096 304.362 201.567 303.85 202.053 303.322C205.13 299.969 208.141 296.568 211.121 293.129C214.437 289.372 217.852 285.706 221.254 282.027C221.698 281.533 222.142 281.038 222.6 280.529C223.557 279.484 224.545 278.466 225.556 277.473C229.207 273.69 230.685 271.057 230.754 265.782C230.724 264.637 230.724 264.637 230.694 263.469C230.696 262.646 230.699 261.822 230.701 260.973C230.703 259.195 230.691 257.417 230.667 255.639C230.628 252.816 230.627 249.996 230.635 247.173C230.644 241.177 230.605 235.183 230.563 229.187C230.518 222.246 230.493 215.305 230.507 208.364C230.504 205.597 230.47 202.832 230.435 200.065C230.355 183.089 230.355 183.089 236 176C249.308 163.509 260.689 168.02 275 176Z" fill="#329F46"/>
<path d="M278 292C278.66 292.33 279.32 292.66 280 293C280.651 295.393 281.186 297.736 281.672 300.164C281.999 301.683 282.329 303.202 282.663 304.72C282.926 305.921 282.926 305.921 283.195 307.146C286.766 323.088 291.639 335.826 301.126 349.296C304.413 354.039 307.403 358.968 310.438 363.875C311.678 365.854 312.919 367.833 314.16 369.812C335.039 403.305 335.039 403.305 334 414C332.055 420.395 328.549 424.082 322.688 427.25C316.014 429.112 311.059 428.201 305 425C299.419 421.466 296.758 416.123 293.5 410.562C292.252 408.472 291.003 406.382 289.754 404.293C288.812 402.71 288.812 402.71 287.852 401.095C285.097 396.491 282.271 391.931 279.438 387.375C278.909 386.523 278.381 385.671 277.837 384.793C275.091 380.362 272.337 375.935 269.578 371.512C266.365 366.354 263.175 361.182 260 356C259.573 355.307 259.145 354.615 258.705 353.901C253.166 344.875 246.735 334.07 249 323C250.658 320.416 252.768 318.52 255.063 316.5C256.269 315.37 257.473 314.239 258.676 313.105C259.255 312.57 259.835 312.034 260.432 311.482C262.91 309.139 265.095 306.583 267.301 303.988C270.781 299.917 274.409 295.974 278 292Z" fill="#329F46"/>
<path d="M220 189C220.33 189 220.66 189 221 189C221.127 195.905 221.214 202.81 221.275 209.715C221.3 212.065 221.334 214.414 221.377 216.763C221.438 220.139 221.466 223.514 221.488 226.891C221.514 227.942 221.54 228.993 221.566 230.076C221.569 237.33 221.569 237.33 218.798 240.59C216.09 241.955 213.675 242.931 210.738 243.676C209.713 243.943 208.689 244.21 207.633 244.486C206.537 244.759 205.441 245.031 204.312 245.312C201.986 245.915 199.659 246.518 197.332 247.121C196.131 247.428 194.931 247.734 193.694 248.05C187.617 249.613 181.559 251.245 175.5 252.875C174.379 253.173 173.258 253.471 172.103 253.779C170.551 254.194 170.551 254.194 168.969 254.617C167.599 254.982 167.599 254.982 166.201 255.355C163.984 255.934 163.984 255.934 162 257C155.459 257.813 151.32 256.86 146 253C142.089 248.877 140.252 245.266 139.625 239.625C140.22 233.873 142.488 230.598 146.332 226.535C151.129 222.669 157.22 221.604 163.062 220.062C164.312 219.71 165.561 219.357 166.848 218.993C172.463 217.417 178.035 215.938 183.773 214.891C199.473 211.769 208.065 202.45 218.292 190.833C218.856 190.228 219.419 189.623 220 189Z" fill="#329F46"/>
<path d="M257.906 90.6836C265.193 95.2652 270.504 100.585 273 109C274.252 117.94 273.472 125.657 268 133C262.3 139.34 256.674 143.386 248.148 144.309C238.775 144.7 231.529 142.175 224.57 135.848C219.082 129.39 216.505 121.474 216.594 113.117C217.513 106.064 221.092 99.342 226.313 94.5C235.823 87.4817 247.009 85.018 257.906 90.6836Z" fill="#329F46"/>
</g>
<defs>
<clipPath id="clip0_153_270">
<rect width="512" height="512" fill="none"/>
</clipPath>
</defs>
</svg>
