<svg width="512" height="512" viewBox="0 0 512 512" fill="none" xmlns="http://www.w3.org/2000/svg">
<g clip-path="url(#clip0_153_271)">
<path d="M255.625 3.68739C256.643 3.68955 257.661 3.6917 258.71 3.69392C273.319 3.74359 287.651 3.99449 302 6.99989C302.975 7.19857 303.95 7.39724 304.954 7.60194C353.336 17.7226 397.324 39.6391 433 73.9999C433.989 74.9481 433.989 74.9481 434.998 75.9154C444.486 85.0599 453.226 94.3572 461 105C461.858 106.151 462.716 107.302 463.574 108.453C469.612 116.644 474.971 125.158 480 134C480.364 134.632 480.729 135.264 481.104 135.914C502.71 173.663 512.477 216.429 512.312 259.625C512.31 260.643 512.308 261.661 512.306 262.709C512.256 277.319 512.005 291.651 509 306C508.702 307.462 508.702 307.462 508.398 308.954C498.277 357.336 476.361 401.324 442 437C441.368 437.659 440.736 438.319 440.084 438.998C430.94 448.486 421.643 457.226 411 465C409.849 465.858 408.698 466.716 407.547 467.574C399.357 473.612 390.855 478.994 382 484C381.293 484.402 380.586 484.804 379.857 485.219C356.722 498.244 331.55 506.993 305.562 512.312C304.844 512.46 304.125 512.607 303.384 512.759C288.708 515.548 274.183 516.349 259.273 516.316C256.333 516.312 253.395 516.336 250.455 516.361C237.082 516.406 224.186 515.2 211 513C209.294 512.718 209.294 512.718 207.554 512.43C164.287 504.658 123.237 484.671 90 456C89.2549 455.366 88.5099 454.731 87.7422 454.078C74.2372 442.267 61.5658 429.516 51 415C50.1435 413.85 49.2867 412.7 48.4297 411.551C42.3897 403.361 37.0063 394.856 32 386C31.5978 385.293 31.1956 384.585 30.7813 383.857C17.7558 360.721 9.007 335.55 3.68751 309.562C3.54016 308.843 3.3928 308.125 3.24098 307.384C0.267121 291.738 -0.372992 276.264 -0.312488 260.375C-0.310333 259.357 -0.308178 258.339 -0.305957 257.29C-0.256286 242.681 -0.00538969 228.349 3.00001 214C3.19869 213.025 3.39737 212.05 3.60206 211.046C13.7227 162.664 35.6392 118.676 70 82.9999C70.6321 82.3405 71.2643 81.6812 71.9155 81.0018C81.06 71.5136 90.3574 62.7737 101 54.9999C102.151 54.1418 103.302 53.2838 104.453 52.4257C112.643 46.3881 121.145 41.0053 130 35.9999C130.707 35.5977 131.414 35.1955 132.143 34.7811C155.278 21.7557 180.45 13.0069 206.438 7.68739C207.156 7.54003 207.875 7.39268 208.616 7.24086C224.262 4.267 239.736 3.62689 255.625 3.68739Z" fill="#FEFEFE"/>
<path d="M268.742 154.836C275.888 158.521 281.272 164.514 284.363 171.915C285.562 175.841 285.378 179.791 285.321 183.863C285.32 184.829 285.319 185.794 285.318 186.788C285.314 188.874 285.304 190.96 285.288 193.046C285.265 196.35 285.264 199.654 285.27 202.958C285.282 212.35 285.265 221.741 285.209 231.132C285.177 236.885 285.178 242.637 285.2 248.39C285.202 250.578 285.191 252.767 285.166 254.954C285.133 258.016 285.142 261.075 285.161 264.137C285.13 265.485 285.13 265.485 285.099 266.861C285.179 271.784 285.817 274.351 289.353 277.89C290.566 278.93 291.782 279.967 293 281C294.083 282.19 295.149 283.396 296.187 284.625C299.378 288.327 302.676 291.919 306 295.5C309.791 299.588 313.527 303.707 317.172 307.926C319.047 310.053 320.965 312.137 322.894 314.216C324.804 316.281 326.697 318.361 328.586 320.445C329.511 321.462 330.441 322.476 331.375 323.486C332.706 324.932 334.01 326.404 335.312 327.875C336.072 328.718 336.831 329.561 337.613 330.43C345.453 340.982 349.075 356.031 353.562 368.25C354.967 372.072 356.375 375.892 357.785 379.711C358.137 380.663 358.488 381.615 358.85 382.596C361.129 388.736 363.497 394.835 365.934 400.914C366.543 402.449 367.152 403.984 367.761 405.519C368.614 407.666 369.473 409.81 370.358 411.944C374.187 421.181 377.253 430.486 374.26 440.468C371.844 446.253 367.206 450.463 361.613 453.145C356.074 454.958 349.568 454.935 344.125 452.75C332.402 446.185 329.455 433.351 325 421.352C324.437 419.848 323.873 418.344 323.309 416.84C321.833 412.904 320.363 408.966 318.895 405.027C316.549 398.732 314.193 392.441 311.836 386.15C311.023 383.975 310.212 381.799 309.402 379.623C304.26 363.557 304.26 363.557 294.625 350.25C290.754 346.703 287.258 343.076 283.83 339.097C280.796 335.62 277.613 332.286 274.437 328.938C273.024 327.442 271.612 325.946 270.199 324.449C269.496 323.705 268.793 322.96 268.068 322.193C263.241 317.074 258.445 311.926 253.654 306.775C252.009 305.01 250.358 303.251 248.707 301.492C231.87 283.501 231.87 283.501 231.886 274.256C231.886 273.563 231.886 272.87 231.886 272.156C231.887 269.862 231.895 267.568 231.902 265.274C231.904 263.685 231.906 262.096 231.907 260.507C231.91 256.321 231.92 252.136 231.931 247.95C231.942 243.68 231.946 239.411 231.951 235.141C231.962 226.761 231.979 218.38 232 210C231.34 210.385 230.681 210.771 230.001 211.167C206.106 225.118 206.106 225.118 195.125 231.438C192.963 232.682 190.802 233.927 188.641 235.172C187.558 235.795 186.476 236.419 185.361 237.061C182.457 238.737 179.555 240.416 176.655 242.099C174.876 243.131 173.096 244.163 171.316 245.194C169.085 246.487 166.854 247.781 164.625 249.078C145.601 260.091 145.601 260.091 137 259C130.159 256.799 126.273 252.897 122.687 246.75C121.184 240.736 120.906 235.153 124.125 229.688C128.774 222.683 136.214 218.997 143.375 215.063C145.45 213.907 147.524 212.749 149.598 211.59C150.66 210.997 151.722 210.404 152.817 209.793C157.848 206.959 162.831 204.045 167.812 201.125C179.404 194.339 191.035 187.622 202.674 180.918C206.071 178.96 209.465 176.998 212.859 175.035C232.267 163.816 232.267 163.816 241.437 158.625C242.076 158.262 242.714 157.899 243.372 157.524C251.037 153.209 260.231 152.242 268.742 154.836Z" fill="#329F46"/>
<path d="M229 297C233.888 301.016 238.298 305.27 242.562 309.938C243.776 311.256 244.989 312.573 246.203 313.891C246.823 314.564 247.442 315.238 248.08 315.932C250.029 318.031 252.002 320.104 253.984 322.172C254.626 322.845 255.267 323.518 255.927 324.211C257.161 325.505 258.4 326.793 259.645 328.076C260.202 328.663 260.758 329.25 261.332 329.855C261.824 330.367 262.316 330.879 262.823 331.407C265.155 334.564 265.009 336.916 264.602 340.781C261.672 356.315 253.58 368.659 245.133 381.694C242.164 386.295 239.303 390.959 236.438 395.625C235.401 397.296 234.363 398.967 233.324 400.637C230.504 405.179 227.704 409.734 224.908 414.292C221.867 419.251 218.813 424.201 215.756 429.15C214.239 431.612 212.733 434.08 211.23 436.551C206.721 443.88 202.295 450.644 194 454C186.864 454.897 180.549 454.899 174.648 450.492C168.934 445.319 165.776 440.059 165.25 432.25C165.417 423.48 169.802 417.442 174.473 410.339C176.558 407.145 178.546 403.894 180.54 400.643C182.167 397.994 183.806 395.354 185.449 392.715C187.939 388.712 190.42 384.704 192.895 380.691C193.558 379.616 194.222 378.54 194.906 377.432C196.268 375.215 197.623 372.994 198.971 370.769C202.116 365.592 205.3 360.506 208.812 355.57C219.943 339.494 223.556 322.359 227.282 303.464C228 300 228 300 229 297Z" fill="#329F46"/>
<path d="M296 177C297.12 177.948 298.238 178.898 299.356 179.849C299.979 180.377 300.602 180.906 301.244 181.451C303.457 183.403 305.384 185.519 307.312 187.75C308.094 188.607 308.875 189.464 309.68 190.348C312 193 312 193 313.883 195.621C321.611 205.274 333.07 206.471 344.568 209.16C349.92 210.47 355.175 212.062 360.437 213.688C361.792 214.098 361.792 214.098 363.175 214.516C367.787 215.931 372.374 217.423 376.937 218.988C377.822 219.289 378.706 219.59 379.617 219.9C384.689 222.242 387.899 226.935 390 232C390.981 238.649 390.405 243.867 386.426 249.348C382.694 253.673 378.777 256.42 373.094 257.293C364.891 257.813 357.254 255.079 349.499 252.749C345.28 251.485 341.046 250.276 336.812 249.062C335.951 248.812 335.089 248.561 334.201 248.302C329.423 246.924 324.638 245.651 319.801 244.496C318.77 244.245 317.74 243.994 316.678 243.736C314.698 243.259 312.714 242.798 310.726 242.356C309.819 242.135 308.911 241.915 307.977 241.688C307.183 241.506 306.39 241.324 305.573 241.137C301.589 239.377 298.508 237.651 296 234C295.036 229.639 295.184 225.393 295.316 220.945C295.326 219.689 295.336 218.432 295.346 217.137C295.379 213.812 295.442 210.49 295.519 207.165C295.591 203.767 295.623 200.368 295.658 196.969C295.735 190.312 295.852 183.656 296 177Z" fill="#329F46"/>
<path d="M283.562 64.4374C291.462 69.0646 297.341 75.4901 300.375 84.1992C302.442 93.4612 301.9 102.774 297 111C291.976 118.428 285.636 123.422 277 126C267.215 127.559 258.261 126.797 250 121C248.927 120.278 247.855 119.556 246.75 118.812C240.075 111.986 236.044 103.906 235.562 94.3749C235.727 85.5302 239.088 77.0119 245.188 70.5312C255.935 61.451 270.508 58.3943 283.562 64.4374Z" fill="#329F46"/>
</g>
<defs>
<clipPath id="clip0_153_271">
<rect width="512" height="512" fill="none"/>
</clipPath>
</defs>
</svg>
