<svg width="230" height="178" viewBox="0 0 230 178" fill="none" xmlns="http://www.w3.org/2000/svg">
<g clip-path="url(#clip0)">
<path d="M145.508 177.547C145.508 177.547 141.983 168.898 152.559 162.411L145.508 177.547Z" fill="#E6E6E6"/>
<path d="M141.173 177.39C141.173 177.39 140.098 171.225 131.774 171.278L141.173 177.39Z" fill="#E6E6E6"/>
<path d="M220.686 177.547C220.686 177.547 216.028 166.12 230 157.55L220.686 177.547Z" fill="#E6E6E6"/>
<path d="M214.958 177.339C214.958 177.339 213.537 169.195 202.541 169.264L214.958 177.339Z" fill="#E6E6E6"/>
<path d="M133.576 49.4788L128.977 47.0436L129.321 46.8611L133.92 49.2967L133.576 49.4788Z" fill="#CBCBCB"/>
<path d="M129.565 49.4788L129.221 49.2967L133.82 46.8611L134.164 47.0436L129.565 49.4788Z" fill="#CBCBCB"/>
<path d="M95.3313 30.6023L95.1094 31.0341L96.4087 31.6977L96.6307 31.266L95.3313 30.6023Z" fill="#CBCBCB"/>
<path d="M122.27 44.9073L119.684 43.5864L119.906 43.1546L122.492 44.4755L122.27 44.9073ZM117.098 42.2654L114.511 40.9443L114.733 40.5125L117.319 41.8336L117.098 42.2654ZM111.925 39.6234L109.339 38.3024L109.561 37.8706L112.147 39.1916L111.925 39.6234ZM106.753 36.9815L104.167 35.6605L104.388 35.2287L106.975 36.5497L106.753 36.9815ZM101.58 34.3395L98.9941 33.0186L99.2161 32.5868L101.802 33.9077L101.58 34.3395Z" fill="#CBCBCB"/>
<path d="M125.078 45.7965L124.856 46.2283L126.156 46.8919L126.378 46.4602L125.078 45.7965Z" fill="#CBCBCB"/>
<path d="M26.9718 63.0771C26.9718 63.2287 26.9669 63.3789 26.957 63.5279C26.9018 64.3872 26.684 65.2283 26.3152 66.0069C26.3123 66.0136 26.3089 66.0198 26.3061 66.026C26.2889 66.0621 26.2713 66.0981 26.2532 66.1338C26.1435 66.354 26.0218 66.5681 25.8886 66.775C25.2804 67.7251 24.4468 68.5113 23.4614 69.064C22.4761 69.6168 21.3693 69.9191 20.2388 69.9442L20.307 73.8506L21.1957 73.3842L21.3544 73.6848L20.3137 74.2311L20.4409 81.4862L20.4423 81.5831L19.7552 81.7356L19.7566 81.6382L19.9729 69.9447C19.0631 69.9317 18.1648 69.7386 17.3304 69.3767C16.496 69.0149 15.742 68.4914 15.1123 67.8366C15.0689 67.792 15.026 67.7459 14.9841 67.7003L14.9793 67.6951C14.4546 67.1247 14.0302 66.4702 13.7241 65.759C13.7308 65.7666 13.7379 65.7737 13.7446 65.7813C13.0528 64.1687 13.0058 62.3534 13.6135 60.7074C14.2211 59.0614 15.4372 57.7093 17.0127 56.9283C17.0365 56.9164 17.0608 56.905 17.0846 56.8931C18.6431 56.1449 20.4266 56.0076 22.0818 56.5085C23.737 57.0093 25.143 58.1118 26.0211 59.5973C26.0631 59.6676 26.1036 59.7393 26.1426 59.8115C26.6881 60.814 26.9732 61.9367 26.9718 63.0771Z" fill="#E5E5E5"/>
<path d="M26.0439 66.0296C31.0323 66.0296 35.0762 61.9988 35.0762 57.0265C35.0762 52.0543 31.0323 48.0234 26.0439 48.0234C21.0556 48.0234 17.0117 52.0543 17.0117 57.0265C17.0117 61.9988 21.0556 66.0296 26.0439 66.0296Z" fill="#E5E5E5"/>
<path opacity="0.2" d="M19.3756 51.0132C18.5331 52.9776 18.4188 55.1766 19.0531 57.2173C19.6875 59.258 21.0291 61.0073 22.8383 62.1528C24.6475 63.2982 26.8064 63.7651 28.9291 63.47C31.0519 63.1749 33.0002 62.137 34.4259 60.5418C33.9113 61.742 33.141 62.8163 32.1684 63.6902C31.1959 64.5642 30.0443 65.217 28.7936 65.6033C27.5428 65.9896 26.2227 66.1003 24.9248 65.9276C23.6269 65.7549 22.3822 65.303 21.2768 64.6032C20.1715 63.9034 19.232 62.9725 18.5235 61.8748C17.815 60.7772 17.3543 59.5391 17.1735 58.2464C16.9926 56.9537 17.0959 55.6373 17.4761 54.3883C17.8564 53.1393 18.5045 51.9877 19.3756 51.0132Z" fill="black"/>
<path d="M26.5328 82.1076L25.6104 81.8497L25.6123 81.7508L25.8887 66.7751L25.9025 66.0283L25.9028 66.0066L25.9512 63.39L26.0211 59.5978V59.5972L26.0687 57.0267H26.0941L26.1428 59.8116L26.2061 63.4363L26.2514 66.0082V66.0272L26.2533 66.1333V66.1339L26.341 71.1474L26.3501 71.6455L26.5311 82.0078L26.5328 82.1076Z" fill="#3F3D56"/>
<path d="M27.5058 70.5361L26.0127 71.3196L26.2208 71.7136L27.7138 70.9301L27.5058 70.5361Z" fill="#3F3D56"/>
<path d="M143.129 27.8894C131.728 27.2175 120.294 27.3927 108.92 28.4135C103.438 28.9074 97.8682 29.441 92.4874 30.6329C88.1533 31.593 83.1231 33.2157 80.4227 36.9953C79.8571 37.7568 79.476 38.6385 79.3091 39.5712C79.1422 40.504 79.194 41.4626 79.4606 42.3721C80.1045 44.5267 81.7062 46.3201 83.4121 47.7248C87.3382 50.9578 92.2094 52.8391 96.5607 55.4076C104.505 60.0972 111.776 66.4182 116.443 74.4478C118.497 77.9812 120.451 82.6793 118.164 86.5727C115.924 90.3869 110.922 91.701 106.844 92.3207C101.732 93.0974 96.4664 92.8867 91.3332 92.4518C85.7054 91.9287 80.1091 91.1116 74.5672 90.0041C63.7103 87.9261 52.9523 85.2828 41.9446 84.0807C36.4252 83.4336 30.8594 83.2732 25.3117 83.6013C20.3015 83.9382 15.2485 84.7281 10.5418 86.5288C6.9149 87.9164 3.04881 90.0159 1.0897 93.5171C-0.79879 96.8921 -0.0622189 100.784 1.99412 103.898C4.46831 107.645 8.32646 110.212 12.3377 112.089C16.9048 114.225 21.7897 115.61 26.6809 116.788C29.1616 117.386 31.6557 117.926 34.15 118.463C34.6704 118.575 34.8927 117.778 34.3705 117.666C29.3405 116.582 24.2959 115.495 19.3908 113.927C14.8516 112.476 10.2064 110.617 6.48925 107.569C3.48206 105.104 0.622839 101.503 0.800337 97.4082C0.979269 93.2808 4.4535 90.3989 7.85872 88.6251C12.1143 86.4083 16.9492 85.3285 21.6869 84.7641C27.1116 84.1616 32.5823 84.0875 38.0214 84.5427C49.0032 85.3756 59.7396 87.8691 70.5068 90.044C80.967 92.157 91.7536 94.1135 102.473 93.5715C106.722 93.3568 111.275 92.7499 115.026 90.6122C116.744 89.6334 118.293 88.2531 119.166 86.4569C119.952 84.7479 120.201 82.8415 119.879 80.9888C119.271 76.919 116.846 73.1453 114.426 69.9037C111.773 66.3878 108.697 63.2109 105.265 60.4449C101.499 57.4237 97.438 54.7868 93.1436 52.574C90.8662 51.3788 88.5566 50.2296 86.3863 48.8453C84.3054 47.5181 82.2527 45.9211 80.9819 43.7664C79.8829 41.9029 79.6813 39.7759 80.826 37.8859C81.9839 35.9742 83.9788 34.6409 85.946 33.6666C90.6857 31.3192 96.1961 30.6909 101.382 30.047C112.516 28.6693 123.738 28.1116 134.955 28.3785C137.681 28.4424 140.406 28.5549 143.129 28.716C143.662 28.7472 143.66 27.9205 143.129 27.8893V27.8894Z" fill="black"/>
<path d="M135.896 1.39207L137.618 0.0192265C136.281 -0.127891 135.731 0.599346 135.506 1.17496C134.461 0.742385 133.323 1.30929 133.323 1.30929L136.769 2.55608C136.595 2.09331 136.292 1.68953 135.896 1.39207Z" fill="#3F3D56"/>
<path d="M127.539 5.73832L129.261 4.36548C127.923 4.21836 127.374 4.94559 127.149 5.52121C126.104 5.08864 124.966 5.65555 124.966 5.65555L128.411 6.90233C128.237 6.43956 127.935 6.03578 127.539 5.73832Z" fill="#3F3D56"/>
<path d="M135.896 12.6197L137.618 11.2469C136.281 11.0998 135.731 11.827 135.506 12.4026C134.461 11.97 133.323 12.537 133.323 12.537L136.769 13.7837C136.595 13.321 136.292 12.9172 135.896 12.6197Z" fill="#3F3D56"/>
<path d="M110.081 14.6537C112.946 14.6537 115.269 12.3384 115.269 9.48223C115.269 6.62609 112.946 4.31073 110.081 4.31073C107.215 4.31073 104.893 6.62609 104.893 9.48223C104.893 12.3384 107.215 14.6537 110.081 14.6537Z" fill="#FF6583"/>
<path d="M126.35 25.418H100.898C100.866 25.4184 100.834 25.4159 100.803 25.4105L112.841 4.62795C112.914 4.49849 113.021 4.39078 113.15 4.31584C113.278 4.2409 113.425 4.20142 113.574 4.20142C113.723 4.20142 113.87 4.2409 113.999 4.31584C114.128 4.39078 114.234 4.49849 114.308 4.62795L122.386 18.5742L122.773 19.2414L126.35 25.418Z" fill="#2F9E44"/>
<path d="M140.52 25.4183H118.507L122.772 19.2422L123.079 18.7971L128.638 10.7486C128.736 10.6254 128.859 10.5243 128.999 10.4517C129.139 10.3792 129.293 10.3368 129.451 10.3274C129.608 10.3181 129.766 10.3418 129.914 10.3973C130.062 10.4527 130.196 10.5385 130.308 10.6491C130.337 10.6805 130.364 10.7138 130.388 10.7486L140.52 25.4183Z" fill="#2F9E44"/>
<path d="M104.208 73.0833C106.62 74.2852 108.089 75.8726 108.089 77.6137C108.089 81.3644 101.28 84.4049 92.8812 84.4049C89.2295 84.4049 85.8794 83.8297 83.2578 82.8718C86.0423 84.259 90.0843 85.1325 94.5845 85.1325C102.984 85.1325 109.792 82.092 109.792 78.3413C109.792 76.2213 107.616 74.3287 104.208 73.0833Z" fill="#F1F1F1"/>
<path d="M109.574 75.6596C112.297 77.0158 113.954 78.807 113.954 80.7716C113.954 85.0038 106.271 88.4347 96.7935 88.4347C92.673 88.4347 88.8927 87.7856 85.9346 86.7047C89.0765 88.2701 93.6374 89.2557 98.7154 89.2557C108.193 89.2557 115.876 85.8249 115.876 81.5927C115.876 79.2005 113.42 77.0649 109.574 75.6596Z" fill="#F1F1F1"/>
<path d="M102.154 74.2181C103.854 75.0649 104.889 76.1833 104.889 77.4099C104.889 80.0524 100.092 82.1945 94.1745 82.1945C91.8691 82.2242 89.5758 81.8589 87.3945 81.1143C89.3563 82.0917 92.204 82.7071 95.3745 82.7071C101.292 82.7071 106.089 80.565 106.089 77.9226C106.089 76.429 104.556 75.0956 102.154 74.2181Z" fill="#F1F1F1"/>
<path d="M78.2734 73.733C78.2734 73.733 78.6469 79.1746 89.3533 79.1746C100.06 79.1746 103.256 73.733 103.256 73.733H78.2734Z" fill="#3F3D56"/>
<path d="M93.4695 59.4557C91.9239 58.2853 89.9839 57.7563 88.0558 57.9796C89.7788 58.3936 91.3005 59.3994 92.3538 60.8203C93.4071 62.2412 93.9247 63.9865 93.8157 65.7498C93.7067 67.5132 92.9782 69.1819 91.7579 70.4632C90.5376 71.7445 88.9036 72.5565 87.1426 72.7567C88.827 73.162 90.6001 72.9768 92.1637 72.2324C93.7274 71.488 94.9862 70.2296 95.7286 68.6689C96.471 67.1082 96.6516 65.3403 96.2402 63.6624C95.8288 61.9846 94.8504 60.4991 93.4695 59.4557Z" fill="#3F3D56"/>
<path d="M89.9614 56.9976H89.2314V74.3176H89.9614V56.9976Z" fill="#3F3D56"/>
<path d="M137.935 44.1288L137.931 44.1221L137.922 43.699L140.208 40.3894L137.924 43.3823L137.916 43.4718L137.838 40.0889L139.813 36.6576L137.832 39.4947L137.853 32.4863L137.853 32.463L137.852 32.4859L137.721 38.0094L135.921 35.7658L137.715 38.4853L137.676 41.5112L136.019 38.558L137.67 41.956L137.648 43.6386L137.587 48.3L137.583 48.6483C137.736 48.6494 137.887 48.6469 138.036 48.6407L137.932 44.1633L137.935 44.1288Z" fill="#CBCBCB"/>
<path d="M126.985 45.584L126.981 45.5773L126.971 45.1543L129.258 41.8446L126.974 44.8376L126.966 44.927L126.888 41.5442L128.863 38.1129L126.882 40.9499L126.903 33.9415L126.903 33.9182L126.902 33.9412L126.771 39.4647L124.971 37.221L126.765 39.9405L126.726 42.9664L125.069 40.0133L126.72 43.4113L126.698 45.0938L126.637 49.7552L126.633 50.1035C126.785 50.1047 126.936 50.1022 127.086 50.0959L126.982 45.6186L126.985 45.584Z" fill="#CBCBCB"/>
<path d="M132.339 40.9757L132.335 40.9691L132.325 40.546L134.612 37.2364L132.328 40.2293L132.319 40.3187L132.241 36.9359L134.217 33.5046L132.236 36.3416L132.256 29.3333L132.256 29.3099L132.256 29.3329L132.124 34.8564L130.324 32.6128L132.119 35.3323L132.079 38.3581L130.423 35.405L132.073 38.803L132.051 40.4855L131.991 45.1469L131.986 45.4953C132.139 45.4964 132.29 45.4939 132.439 45.4877L132.336 41.0103L132.339 40.9757Z" fill="#CBCBCB"/>
<path d="M41.9043 121.514C43.5169 121.514 44.8242 120.211 44.8242 118.603C44.8242 116.996 43.5169 115.693 41.9043 115.693C40.2917 115.693 38.9844 116.996 38.9844 118.603C38.9844 120.211 40.2917 121.514 41.9043 121.514Z" fill="#2F9E44"/>
<path d="M197.76 172.329L195.057 173.33L189.896 163.413L193.886 161.936L197.76 172.329Z" fill="#FFB7B7"/>
<path d="M199.423 174.686L190.707 177.914L190.666 177.804C190.332 176.907 190.369 175.914 190.768 175.044C191.168 174.175 191.898 173.499 192.798 173.165L192.798 173.165L198.122 171.194L199.423 174.686Z" fill="#2F2E41"/>
<path d="M171.157 175.127L168.273 175.127L166.901 164.04L171.158 164.04L171.157 175.127Z" fill="#FFB7B7"/>
<path d="M171.657 177.914L162.358 177.913V177.796C162.358 176.839 162.74 175.922 163.419 175.245C164.097 174.569 165.018 174.188 165.978 174.188H165.978L171.657 174.189L171.657 177.914Z" fill="#2F2E41"/>
<path d="M184.36 98.2319L183.419 96.3562L175.421 100.342L175.656 101.983L174.128 103.976C174.128 103.976 171.54 105.383 172.01 110.072L172.481 114.527L173.069 120.272L168.953 134.457L166.836 153.214L165.307 168.337L172.716 167.985L179.538 143.366L191.534 169.861L199.767 167.751L188.476 141.491L187.065 130.471C187.065 130.471 188.006 124.609 183.536 120.623L184.242 118.513V115.913L186.594 103.507L184.36 98.2319Z" fill="#2F2E41"/>
<path opacity="0.2" d="M184.579 125.041L179.404 143.329L179.67 143.404L184.845 125.116L184.579 125.041Z" fill="black"/>
<path d="M184.125 120.272H172.599V121.444H184.125V120.272Z" fill="#3F3D56"/>
<path d="M172.598 122.147C172.858 122.147 173.069 121.622 173.069 120.975C173.069 120.327 172.858 119.803 172.598 119.803C172.339 119.803 172.128 120.327 172.128 120.975C172.128 121.622 172.339 122.147 172.598 122.147Z" fill="#3F3D56"/>
<path d="M180.804 95.1996C183.842 93.544 184.959 89.7466 183.298 86.718C181.637 83.6893 177.827 82.5762 174.789 84.2319C171.75 85.8875 170.634 89.6848 172.295 92.7135C173.956 95.7421 177.765 96.8552 180.804 95.1996Z" fill="#FFB7B7"/>
<path d="M187.391 87.4846C190.454 87.4846 192.937 85.0092 192.937 81.9557C192.937 78.9021 190.454 76.4267 187.391 76.4267C184.327 76.4267 181.844 78.9021 181.844 81.9557C181.844 85.0092 184.327 87.4846 187.391 87.4846Z" fill="#2F2E41"/>
<path d="M194.43 81.3635C194.649 82.096 194.713 82.8659 194.618 83.6243C194.523 84.3828 194.271 85.1135 193.879 85.7702C193.487 86.4269 192.962 86.9954 192.338 87.4398C191.714 87.8841 191.005 88.1948 190.254 88.352C189.504 88.5093 188.729 88.5097 187.978 88.3534C187.228 88.197 186.518 87.8872 185.893 87.4436C185.269 86.9999 184.744 86.4321 184.351 85.7758C183.957 85.1196 183.705 84.3892 183.609 83.6309C184.007 84.9609 184.891 86.0934 186.088 86.8035C187.284 87.5135 188.704 87.7492 190.067 87.4637C191.43 87.1781 192.635 86.3923 193.443 85.2623C194.251 84.1322 194.603 82.7405 194.43 81.3635Z" fill="#2F2E41"/>
<path d="M172.517 87.9806C172.354 89.4098 172.669 90.8525 173.412 92.0854C174.155 93.3182 175.286 94.2722 176.628 94.7997C177.971 95.3271 179.45 95.3984 180.837 95.0027C182.225 94.6069 183.442 93.7662 184.302 92.6106C185.161 91.4551 185.614 90.0494 185.59 88.6112C185.567 87.1731 185.068 85.7828 184.171 84.6559C183.275 83.529 182.03 82.7283 180.631 82.3779C179.231 82.0275 177.755 82.147 176.43 82.7179C175.335 81.8373 173.977 82.1102 172.873 83.0395C171.624 84.0903 171.253 84.8122 170.285 86.5402C171.237 86.6735 171.565 87.8473 172.517 87.9806Z" fill="#2F2E41"/>
<path d="M195.564 106.776C195.494 108.628 195.355 112.273 195.355 112.459C195.355 112.656 192.582 118.378 191.384 120.841V120.842C191.299 121.016 191.223 121.173 191.155 121.312C191.062 121.503 190.917 121.664 190.735 121.775C190.554 121.886 190.344 121.943 190.131 121.939L184.896 121.845C184.609 121.84 184.334 121.725 184.13 121.523C183.925 121.321 183.807 121.048 183.8 120.761L183.216 97.8044C183.214 97.7287 183.227 97.6534 183.255 97.5829C183.283 97.5124 183.324 97.4481 183.377 97.3939C183.43 97.3397 183.494 97.2966 183.564 97.2671C183.634 97.2377 183.709 97.2225 183.785 97.2224H190.536C190.821 97.2225 191.1 97.3027 191.342 97.4538C191.584 97.6049 191.777 97.8208 191.902 98.0767L195.142 104.758C195.446 105.386 195.591 106.079 195.564 106.776V106.776Z" fill="#2F9E44"/>
<path d="M183.708 119.186C182.365 118.374 181.158 117.358 180.132 116.173C177.746 113.499 176.296 110.125 175.997 106.559C175.731 103.509 176.339 101.241 177.803 99.819C179.663 98.0117 182.196 98.2743 182.303 98.2864L182.417 98.2992L184.133 99.7465L183.647 100.319L182.112 99.0235C181.642 99.0001 179.723 98.995 178.321 100.362C177.031 101.62 176.501 103.683 176.746 106.495C177.03 109.89 178.408 113.102 180.674 115.653C181.651 116.78 182.797 117.75 184.071 118.53L183.708 119.186Z" fill="#2F9E44"/>
<path d="M193.45 110.464L184.303 112.337L184.353 112.581L193.5 110.709L193.45 110.464Z" fill="#3F3D56"/>
<path d="M187.421 97.2174L187.171 97.2275L187.765 111.735L188.015 111.725L187.421 97.2174Z" fill="#3F3D56"/>
<path d="M195.564 106.776C195.494 108.628 195.354 112.273 195.354 112.459C195.354 112.656 192.582 118.378 191.384 120.841L193.617 107.918C193.703 107.421 193.92 106.956 194.246 106.57C194.572 106.184 194.995 105.891 195.472 105.721C195.547 106.068 195.578 106.422 195.564 106.776Z" fill="#3F3D56"/>
<path d="M181.846 133.858C182.043 133.604 182.183 133.31 182.254 132.997C182.325 132.683 182.327 132.358 182.259 132.044C182.19 131.73 182.053 131.434 181.858 131.179C181.663 130.923 181.414 130.713 181.128 130.564L181.582 125.56L178.599 124.543L178.057 131.619C177.837 132.113 177.807 132.671 177.972 133.187C178.137 133.702 178.487 134.139 178.954 134.415C179.42 134.692 179.973 134.787 180.506 134.685C181.039 134.582 181.516 134.288 181.846 133.858Z" fill="#FFB7B7"/>
<path d="M182.235 129.016L176.949 128.825L177.173 103.414C177.169 102.695 177.392 101.993 177.81 101.407C178.229 100.821 178.821 100.381 179.504 100.149C180.142 99.9381 180.832 99.9375 181.47 100.148C182.194 100.392 182.816 100.87 183.238 101.506C183.659 102.141 183.857 102.899 183.798 103.659L182.235 129.016Z" fill="#CBCBCB"/>
<path d="M228.61 178H123.289C123.216 178 123.146 177.971 123.094 177.919C123.042 177.868 123.013 177.798 123.013 177.724C123.013 177.651 123.042 177.581 123.094 177.53C123.146 177.478 123.216 177.449 123.289 177.449H228.61C228.683 177.449 228.754 177.478 228.806 177.53C228.857 177.581 228.887 177.651 228.887 177.724C228.887 177.798 228.857 177.868 228.806 177.919C228.754 177.971 228.683 178 228.61 178Z" fill="#CBCBCB"/>
</g>
<defs>
<clipPath id="clip0">
<rect width="230" height="178" fill="white"/>
</clipPath>
</defs>
</svg>
