<svg width="181" height="183" viewBox="0 0 181 183" fill="none" xmlns="http://www.w3.org/2000/svg">
<g style="mix-blend-mode:multiply">
<path d="M165.076 73.6251C154.269 65.5818 137.343 57.9749 118.637 52.7552C101.606 48.0026 84.9943 45.708 71.8584 46.294L71.79 44.7732C85.0823 44.1805 101.867 46.4943 119.05 51.2894C137.93 56.5578 155.04 64.2544 165.992 72.4058L165.076 73.6251Z" fill="#3F3D56"/>
<path d="M163.954 79.8205C163.964 86.9468 162.463 93.995 159.55 100.505C159.307 101.05 159.054 101.59 158.79 102.124C153.724 112.455 145.292 120.772 134.868 125.719C124.444 130.665 112.644 131.949 101.393 129.362C90.1419 126.774 80.1035 120.468 72.915 111.471C65.7265 102.473 61.8122 91.3169 61.8105 79.8205C61.8105 78.6438 61.8508 77.4761 61.9313 76.3176C61.9695 75.7285 62.019 75.1429 62.0797 74.5609C63.4341 61.6013 69.7337 49.6537 79.6787 41.1838C89.6237 32.7139 102.455 28.3679 115.525 29.0427C128.595 29.7174 140.906 35.3615 149.917 44.8101C158.929 54.2588 163.954 66.791 163.954 79.8205H163.954Z" fill="#F2F2F2"/>
<path opacity="0.1" d="M159.55 100.505C159.307 101.05 159.053 101.589 158.79 102.124C157.297 102.286 155.727 102.403 154.077 102.476C152.712 102.537 151.306 102.567 149.871 102.567C137.329 102.567 122.235 100.262 106.816 95.9604C89.6318 91.165 74.0855 84.4576 63.0392 77.0727C62.6631 76.8216 62.2936 76.5699 61.9307 76.3177C61.9689 75.7285 62.0183 75.1429 62.079 74.5609C62.6646 74.9765 63.2686 75.3926 63.891 75.8092C74.8072 83.1058 90.1976 89.7417 107.229 94.4944C122.513 98.76 137.465 101.045 149.863 101.045C151.28 101.045 152.662 101.015 154.008 100.955C155.969 100.867 157.816 100.717 159.55 100.505Z" fill="black"/>
<path d="M149.871 101.35C137.33 101.35 122.235 99.045 106.817 94.7425C89.6327 89.9474 74.0857 83.2397 63.0394 75.8551C51.7626 68.3163 46.4746 60.8879 48.1496 54.9383C49.8245 48.9887 58.2202 45.3786 71.7898 44.7732L71.8582 46.294C65.5213 46.5767 60.3571 47.5144 56.5088 49.0811C52.67 50.6439 50.3529 52.7528 49.6219 55.3492C48.891 57.9456 49.7696 60.9462 52.2334 64.2678C54.7031 67.5974 58.6256 71.0706 63.8918 74.5912C74.8068 81.8881 90.1977 88.5241 107.229 93.2767C122.515 97.5419 137.465 99.8275 149.864 99.8278C151.28 99.8278 152.662 99.7978 154.008 99.7378C160.345 99.4551 165.509 98.5174 169.358 96.9508C173.197 95.388 175.514 93.2792 176.245 90.6827C177.557 86.0206 173.591 79.9627 165.076 73.6252L165.992 72.406C170.373 75.6672 173.617 78.8819 175.632 81.9605C177.792 85.261 178.494 88.3339 177.717 91.0936C176.042 97.0432 167.646 100.653 154.077 101.259C152.711 101.32 151.307 101.35 149.871 101.35Z" fill="#3F3D56"/>
<path d="M114.234 19.8043C114.557 19.8043 114.819 19.5434 114.819 19.2216C114.819 18.8998 114.557 18.639 114.234 18.639C113.91 18.639 113.648 18.8998 113.648 19.2216C113.648 19.5434 113.91 19.8043 114.234 19.8043Z" fill="#F2F2F2"/>
<path d="M36.5927 45.0872C37.1488 45.0872 37.5996 44.6385 37.5996 44.0849C37.5996 43.5313 37.1488 43.0825 36.5927 43.0825C36.0367 43.0825 35.5859 43.5313 35.5859 44.0849C35.5859 44.6385 36.0367 45.0872 36.5927 45.0872Z" fill="#CCCCCC"/>
<path d="M34.4459 85.2966C35.5444 85.2966 36.4349 84.41 36.4349 83.3164C36.4349 82.2228 35.5444 81.3363 34.4459 81.3363C33.3475 81.3363 32.457 82.2228 32.457 83.3164C32.457 84.41 33.3475 85.2966 34.4459 85.2966Z" fill="#CCCCCC"/>
<path d="M153.834 24.0372C154.566 24.0372 155.16 23.4464 155.16 22.7175C155.16 21.9887 154.566 21.3978 153.834 21.3978C153.102 21.3978 152.509 21.9887 152.509 22.7175C152.509 23.4464 153.102 24.0372 153.834 24.0372Z" fill="#CCCCCC"/>
<path d="M71.9015 32.8913C72.697 32.8913 73.342 32.2492 73.342 31.4572C73.342 30.6651 72.697 30.023 71.9015 30.023C71.1059 30.023 70.4609 30.6651 70.4609 31.4572C70.4609 32.2492 71.1059 32.8913 71.9015 32.8913Z" fill="#CCCCCC"/>
<path d="M180.787 74.0645C181.297 74.0645 181.71 73.6529 181.71 73.1452C181.71 72.6375 181.297 72.2259 180.787 72.2259C180.277 72.2259 179.863 72.6375 179.863 73.1452C179.863 73.6529 180.277 74.0645 180.787 74.0645Z" fill="#CCCCCC"/>
<path d="M1.14928 77.672C1.78402 77.672 2.29857 77.1597 2.29857 76.5278C2.29857 75.8958 1.78402 75.3835 1.14928 75.3835C0.514552 75.3835 0 75.8958 0 76.5278C0 77.1597 0.514552 77.672 1.14928 77.672Z" fill="#CCCCCC"/>
<path d="M18.6098 58.9368C19.2972 58.9368 19.8545 58.3821 19.8545 57.6977C19.8545 57.0134 19.2972 56.4586 18.6098 56.4586C17.9225 56.4586 17.3652 57.0134 17.3652 57.6977C17.3652 58.3821 17.9225 58.9368 18.6098 58.9368Z" fill="#CCCCCC"/>
<path d="M98.5238 2.44512H96.0679V0H94.7501V2.44512H92.293V3.7582H94.7501V6.20333H96.0679V3.7582H98.5238V2.44512Z" fill="#CCCCCC"/>
<path d="M155.498 134.756H153.955V133.221H153.128V134.756H151.586V135.58H153.128V137.116H153.955V135.58H155.498V134.756Z" fill="#CCCCCC"/>
<path opacity="0.1" d="M80.6804 75.5478C83.0506 75.5478 84.9721 73.6348 84.9721 71.2751C84.9721 68.9153 83.0506 67.0023 80.6804 67.0023C78.3101 67.0023 76.3887 68.9153 76.3887 71.2751C76.3887 73.6348 78.3101 75.5478 80.6804 75.5478Z" fill="black"/>
<path opacity="0.1" d="M128.084 118.469C130.454 118.469 132.375 116.556 132.375 114.197C132.375 111.837 130.454 109.924 128.084 109.924C125.713 109.924 123.792 111.837 123.792 114.197C123.792 116.556 125.713 118.469 128.084 118.469Z" fill="black"/>
<path opacity="0.1" d="M113.648 82.1511C116.018 82.1511 117.94 80.2382 117.94 77.8784C117.94 75.5186 116.018 73.6057 113.648 73.6057C111.278 73.6057 109.356 75.5186 109.356 77.8784C109.356 80.2382 111.278 82.1511 113.648 82.1511Z" fill="black"/>
<path opacity="0.1" d="M82.8259 105.651C85.1961 105.651 87.1176 103.738 87.1176 101.378C87.1176 99.0187 85.1961 97.1057 82.8259 97.1057C80.4556 97.1057 78.5342 99.0187 78.5342 101.378C78.5342 103.738 80.4556 105.651 82.8259 105.651Z" fill="black"/>
<path opacity="0.1" d="M136.667 59.2337C139.037 59.2337 140.958 57.3208 140.958 54.961C140.958 52.6012 139.037 50.6882 136.667 50.6882C134.296 50.6882 132.375 52.6012 132.375 54.961C132.375 57.3208 134.296 59.2337 136.667 59.2337Z" fill="black"/>
<path opacity="0.1" d="M150.908 88.1718C153.278 88.1718 155.2 86.2589 155.2 83.8991C155.2 81.5393 153.278 79.6263 150.908 79.6263C148.538 79.6263 146.616 81.5393 146.616 83.8991C146.616 86.2589 148.538 88.1718 150.908 88.1718Z" fill="black"/>
<path d="M136.667 42.7254C139.791 42.7254 142.324 40.2037 142.324 37.0931C142.324 33.9825 139.791 31.4609 136.667 31.4609C133.543 31.4609 131.01 33.9825 131.01 37.0931C131.01 40.2037 133.543 42.7254 136.667 42.7254Z" fill="white"/>
<path d="M136.667 28.9361C134.546 28.9361 132.512 29.775 131.012 31.2684C129.512 32.7617 128.669 34.787 128.669 36.8989C128.669 41.2967 136.667 55.7378 136.667 55.7378C136.667 55.7378 144.665 41.2967 144.665 36.8989C144.665 34.787 143.823 32.7617 142.323 31.2684C140.823 29.775 138.788 28.9361 136.667 28.9361ZM136.667 40.7832C135.934 40.7832 135.217 40.5668 134.608 40.1613C133.998 39.7559 133.523 39.1796 133.243 38.5053C132.962 37.831 132.889 37.089 133.032 36.3732C133.175 35.6574 133.528 34.9999 134.046 34.4838C134.565 33.9678 135.225 33.6163 135.944 33.4739C136.663 33.3315 137.408 33.4046 138.086 33.6839C138.763 33.9632 139.342 34.4362 139.749 35.043C140.156 35.6499 140.374 36.3633 140.374 37.0931C140.374 37.5777 140.278 38.0576 140.091 38.5053C139.905 38.953 139.632 39.3598 139.288 39.7024C138.944 40.0451 138.535 40.3169 138.086 40.5024C137.636 40.6878 137.154 40.7832 136.667 40.7832Z" fill="#2F9E44"/>
<path d="M80.6573 58.0026C83.7817 58.0026 86.3145 55.481 86.3145 52.3704C86.3145 49.2597 83.7817 46.7381 80.6573 46.7381C77.5328 46.7381 75 49.2597 75 52.3704C75 55.481 77.5328 58.0026 80.6573 58.0026Z" fill="white"/>
<path d="M80.6583 44.2133C78.5371 44.2133 76.5027 45.0523 75.0028 46.5456C73.5028 48.0389 72.6602 50.0643 72.6602 52.1761C72.6602 56.5739 80.6583 71.015 80.6583 71.015C80.6583 71.015 88.6565 56.5739 88.6565 52.1761C88.6565 50.0643 87.8138 48.0389 86.3139 46.5456C84.8139 45.0523 82.7796 44.2133 80.6583 44.2133ZM80.6583 56.0605C79.9253 56.0605 79.2086 55.844 78.5991 55.4386C77.9896 55.0331 77.5145 54.4568 77.234 53.7825C76.9535 53.1082 76.88 52.3663 77.0231 51.6504C77.1661 50.9346 77.5191 50.2771 78.0375 49.7611C78.5558 49.245 79.2163 48.8935 79.9352 48.7512C80.6542 48.6088 81.3995 48.6819 82.0768 48.9611C82.754 49.2404 83.3329 49.7134 83.7402 50.3203C84.1474 50.9271 84.3648 51.6405 84.3648 52.3704C84.3648 52.8549 84.269 53.3348 84.0827 53.7825C83.8964 54.2302 83.6234 54.637 83.2792 54.9797C82.935 55.3223 82.5264 55.5941 82.0767 55.7796C81.627 55.965 81.1451 56.0605 80.6583 56.0605Z" fill="#3F3D56"/>
<path d="M151.629 70.9883C154.753 70.9883 157.286 68.4666 157.286 65.356C157.286 62.2454 154.753 59.7238 151.629 59.7238C148.505 59.7238 145.972 62.2454 145.972 65.356C145.972 68.4666 148.505 70.9883 151.629 70.9883Z" fill="white"/>
<path d="M151.629 57.199C149.508 57.199 147.473 58.0379 145.973 59.5312C144.474 61.0246 143.631 63.0499 143.631 65.1618C143.631 69.5595 151.629 84.0007 151.629 84.0007C151.629 84.0007 159.627 69.5595 159.627 65.1618C159.627 63.0499 158.785 61.0246 157.285 59.5312C155.785 58.0379 153.75 57.199 151.629 57.199ZM151.629 69.0461C150.896 69.0461 150.179 68.8297 149.57 68.4242C148.96 68.0188 148.485 67.4424 148.205 66.7682C147.924 66.0939 147.851 65.3519 147.994 64.6361C148.137 63.9203 148.49 63.2628 149.008 62.7467C149.527 62.2306 150.187 61.8792 150.906 61.7368C151.625 61.5944 152.37 61.6675 153.047 61.9468C153.725 62.2261 154.304 62.6991 154.711 63.3059C155.118 63.9127 155.336 64.6262 155.336 65.356C155.336 65.8406 155.24 66.3205 155.053 66.7682C154.867 67.2159 154.594 67.6227 154.25 67.9653C153.906 68.308 153.497 68.5798 153.047 68.7652C152.598 68.9507 152.116 69.0461 151.629 69.0461Z" fill="#CCCCCC"/>
<path d="M55.7217 99.2512C58.8461 99.2512 61.379 96.7295 61.379 93.6189C61.379 90.5083 58.8461 87.9866 55.7217 87.9866C52.5973 87.9866 50.0645 90.5083 50.0645 93.6189C50.0645 96.7295 52.5973 99.2512 55.7217 99.2512Z" fill="white"/>
<path d="M55.7218 85.4619C53.6005 85.4619 51.5662 86.3009 50.0662 87.7942C48.5663 89.2875 47.7236 91.3129 47.7236 93.4247C47.7236 97.8225 55.7218 112.264 55.7218 112.264C55.7218 112.264 63.72 97.8225 63.72 93.4247C63.72 91.3129 62.8773 89.2875 61.3773 87.7942C59.8774 86.3009 57.843 85.4619 55.7218 85.4619ZM55.7218 97.3091C54.9887 97.3091 54.2721 97.0926 53.6626 96.6872C53.053 96.2817 52.578 95.7054 52.2975 95.0311C52.0169 94.3568 51.9435 93.6149 52.0865 92.899C52.2295 92.1832 52.5826 91.5257 53.1009 91.0096C53.6193 90.4936 54.2797 90.1421 54.9987 89.9997C55.7177 89.8574 56.4629 89.9304 57.1402 90.2097C57.8175 90.489 58.3964 90.962 58.8036 91.5688C59.2109 92.1757 59.4283 92.8891 59.4283 93.619C59.4283 94.1035 59.3324 94.5834 59.1461 95.0311C58.9599 95.4788 58.6869 95.8856 58.3427 96.2283C57.9985 96.5709 57.5899 96.8427 57.1402 97.0282C56.6905 97.2136 56.2085 97.3091 55.7218 97.3091Z" fill="#2F9E44"/>
<path d="M185.94 138.843C187.038 137.928 185.554 134.363 182.625 130.88C179.696 127.397 176.431 125.316 175.333 126.232C174.235 127.147 175.719 130.712 178.648 134.195C181.577 137.678 184.841 139.759 185.94 138.843Z" fill="#2F2E41"/>
<path d="M163.064 146.13C172.188 146.13 179.586 138.766 179.586 129.681C179.586 120.597 172.188 113.233 163.064 113.233C153.939 113.233 146.542 120.597 146.542 129.681C146.542 138.766 153.939 146.13 163.064 146.13Z" fill="#2F2E41"/>
<path d="M170.057 142.591H165.038V151.544H170.057V142.591Z" fill="#2F2E41"/>
<path d="M160.018 142.591H154.999V151.544H160.018V142.591Z" fill="#2F2E41"/>
<path d="M165.874 153.209C168.184 153.209 170.057 152.51 170.057 151.648C170.057 150.785 168.184 150.086 165.874 150.086C163.564 150.086 161.691 150.785 161.691 151.648C161.691 152.51 163.564 153.209 165.874 153.209Z" fill="#2F2E41"/>
<path d="M155.836 153.001C158.146 153.001 160.019 152.302 160.019 151.44C160.019 150.577 158.146 149.878 155.836 149.878C153.526 149.878 151.653 150.577 151.653 151.44C151.653 152.302 153.526 153.001 155.836 153.001Z" fill="#2F2E41"/>
<path d="M157.876 109.005C159.351 103.09 165.864 99.6091 172.421 101.23C178.979 102.851 183.099 108.961 181.624 114.876C180.149 120.791 175.254 120.81 168.697 119.189C162.139 117.567 156.401 114.92 157.876 109.005Z" fill="#2F9E44"/>
<path d="M151.919 125.574C152.533 124.285 149.689 121.663 145.566 119.716C141.444 117.77 137.605 117.236 136.991 118.525C136.377 119.813 139.222 122.435 143.344 124.382C147.466 126.328 151.305 126.862 151.919 125.574Z" fill="#2F2E41"/>
<path d="M160.594 131.695C163.636 131.695 166.103 129.239 166.103 126.211C166.103 123.182 163.636 120.727 160.594 120.727C157.552 120.727 155.086 123.182 155.086 126.211C155.086 129.239 157.552 131.695 160.594 131.695Z" fill="white"/>
<path d="M158.33 126.073C159.344 126.073 160.166 125.254 160.166 124.245C160.166 123.235 159.344 122.417 158.33 122.417C157.316 122.417 156.494 123.235 156.494 124.245C156.494 125.254 157.316 126.073 158.33 126.073Z" fill="#3F3D56"/>
<path d="M164.049 137.636C164.136 138.109 164.128 138.593 164.026 139.063C163.924 139.532 163.731 139.977 163.456 140.371C163.182 140.766 162.832 141.103 162.427 141.364C162.021 141.624 161.569 141.802 161.094 141.888C160.62 141.974 160.133 141.966 159.661 141.865C159.19 141.763 158.743 141.571 158.347 141.297C157.95 141.024 157.612 140.676 157.35 140.272C157.089 139.869 156.91 139.418 156.824 138.946L156.822 138.939C156.461 136.952 158.004 136.249 160 135.889C161.995 135.53 163.688 135.649 164.049 137.636Z" fill="white"/>
<path d="M129.038 94.7375C127.339 93.3099 125.26 92.4049 123.053 92.1325C120.847 91.86 118.608 92.232 116.61 93.2031C114.612 94.1742 112.94 95.7025 111.799 97.6021C110.657 99.5017 110.095 101.691 110.18 103.903C110.266 106.115 110.995 108.254 112.279 110.061C113.564 111.868 115.348 113.264 117.415 114.08C119.482 114.896 121.742 115.096 123.922 114.656C126.101 114.216 128.104 113.155 129.689 111.602L143.758 123.42C143.972 123.6 144.249 123.688 144.528 123.665C144.807 123.641 145.065 123.509 145.246 123.296C145.427 123.083 145.516 122.807 145.493 122.529C145.469 122.251 145.336 121.994 145.122 121.813L145.121 121.812L131.052 109.993C132.686 107.658 133.386 104.799 133.013 101.977C132.641 99.155 131.223 96.5732 129.038 94.7375ZM128.131 108.855C127.035 110.148 125.579 111.089 123.946 111.558C122.313 112.027 120.577 112.003 118.957 111.49C117.338 110.977 115.908 109.997 114.847 108.674C113.787 107.352 113.145 105.746 113.001 104.06C112.858 102.374 113.22 100.684 114.041 99.2023C114.863 97.7211 116.107 96.5157 117.617 95.7385C119.127 94.9613 120.834 94.6473 122.523 94.8361C124.212 95.025 125.807 95.7082 127.105 96.7994C128.847 98.2626 129.934 100.355 130.126 102.616C130.319 104.877 129.601 107.121 128.131 108.855Z" fill="#3F3D56"/>
<path opacity="0.3" d="M116.022 109.876C114.373 108.491 113.308 106.54 113.038 104.409C112.768 102.279 113.313 100.125 114.564 98.3754C114.399 98.5401 114.241 98.7126 114.087 98.8929C113.359 99.7516 112.809 100.745 112.466 101.815C112.124 102.886 111.997 104.013 112.092 105.132C112.187 106.252 112.503 107.342 113.022 108.34C113.54 109.338 114.251 110.224 115.113 110.949C115.976 111.673 116.973 112.221 118.048 112.562C119.123 112.903 120.256 113.03 121.38 112.935C122.505 112.84 123.599 112.526 124.602 112.009C125.604 111.493 126.495 110.786 127.222 109.927C127.375 109.747 127.519 109.562 127.655 109.373C126.133 110.895 124.092 111.791 121.937 111.885C119.782 111.978 117.67 111.261 116.022 109.876Z" fill="black"/>
<path d="M56.7708 118.182C58.3997 113.939 58.6356 110.087 57.2977 109.578C55.9599 109.069 53.5548 112.096 51.9259 116.338C50.297 120.581 50.0611 124.433 51.399 124.943C52.7369 125.452 55.1419 122.425 56.7708 118.182Z" fill="#2F2E41"/>
<path d="M39.0765 146.13C48.2012 146.13 55.5982 138.766 55.5982 129.681C55.5982 120.597 48.2012 113.233 39.0765 113.233C29.9517 113.233 22.5547 120.597 22.5547 129.681C22.5547 138.766 29.9517 146.13 39.0765 146.13Z" fill="#2F2E41"/>
<path d="M36.5671 142.591H31.5479V151.544H36.5671V142.591Z" fill="#2F2E41"/>
<path d="M46.6062 142.591H41.5869V151.544H46.6062V142.591Z" fill="#2F2E41"/>
<path d="M35.7306 153.209C38.0406 153.209 39.9133 152.51 39.9133 151.648C39.9133 150.785 38.0406 150.086 35.7306 150.086C33.4205 150.086 31.5479 150.785 31.5479 151.648C31.5479 152.51 33.4205 153.209 35.7306 153.209Z" fill="#2F2E41"/>
<path d="M45.7696 153.001C48.0797 153.001 49.9524 152.302 49.9524 151.44C49.9524 150.577 48.0797 149.878 45.7696 149.878C43.4596 149.878 41.5869 150.577 41.5869 151.44C41.5869 152.302 43.4596 153.001 45.7696 153.001Z" fill="#2F2E41"/>
<path d="M39.4953 131.139C42.6139 131.139 45.142 128.622 45.142 125.517C45.142 122.412 42.6139 119.895 39.4953 119.895C36.3767 119.895 33.8486 122.412 33.8486 125.517C33.8486 128.622 36.3767 131.139 39.4953 131.139Z" fill="white"/>
<path d="M39.4955 127.391C40.5351 127.391 41.3778 126.552 41.3778 125.517C41.3778 124.482 40.5351 123.643 39.4955 123.643C38.456 123.643 37.6133 124.482 37.6133 125.517C37.6133 126.552 38.456 127.391 39.4955 127.391Z" fill="#3F3D56"/>
<path d="M23.0509 114.385C21.7168 108.436 25.9813 102.426 32.5758 100.96C39.1703 99.4941 45.5977 103.128 46.9318 109.076C48.2658 115.024 43.8954 117.218 37.3009 118.684C30.7064 120.15 24.385 120.333 23.0509 114.385Z" fill="#2F9E44"/>
<path d="M27.9318 125.573C28.5456 124.285 25.7014 121.663 21.5792 119.716C17.457 117.77 13.6177 117.236 13.0039 118.525C12.3901 119.813 15.2343 122.435 19.3565 124.382C23.4788 126.328 27.318 126.862 27.9318 125.573Z" fill="#2F2E41"/>
<path d="M30.9619 135.615C30.9619 137.225 35.1255 140.404 39.7457 140.404C44.3658 140.404 48.6976 135.872 48.6976 134.262C48.6976 132.652 44.3658 134.574 39.7457 134.574C35.1256 134.574 30.9619 134.006 30.9619 135.615Z" fill="white"/>
<path d="M92.677 175.921C101.802 175.921 109.199 168.556 109.199 159.472C109.199 150.388 101.802 143.023 92.677 143.023C83.5523 143.023 76.1553 150.388 76.1553 159.472C76.1553 168.556 83.5523 175.921 92.677 175.921Z" fill="#2F2E41"/>
<path d="M90.1677 172.381H85.1484V181.334H90.1677V172.381Z" fill="#2F2E41"/>
<path d="M100.206 172.381H95.1865V181.334H100.206V172.381Z" fill="#2F2E41"/>
<path d="M89.3312 183C91.6412 183 93.5139 182.301 93.5139 181.438C93.5139 180.576 91.6412 179.877 89.3312 179.877C87.0211 179.877 85.1484 180.576 85.1484 181.438C85.1484 182.301 87.0211 183 89.3312 183Z" fill="#2F2E41"/>
<path d="M99.3693 182.792C101.679 182.792 103.552 182.093 103.552 181.23C103.552 180.368 101.679 179.669 99.3693 179.669C97.0592 179.669 95.1865 180.368 95.1865 181.23C95.1865 182.093 97.0592 182.792 99.3693 182.792Z" fill="#2F2E41"/>
<path d="M76.6505 144.175C75.3165 138.227 79.5809 132.217 86.1754 130.751C92.77 129.285 99.1973 132.918 100.531 138.866C101.865 144.815 97.495 147.008 90.9005 148.474C84.306 149.94 77.9846 150.123 76.6505 144.175Z" fill="#3F3D56"/>
<path d="M92.7433 156.622C92.7433 156.622 93.9418 151.372 91.6647 151.61C89.3875 151.849 86.2715 151.968 85.4325 151.968C84.5936 151.968 79.7996 151.372 79.0805 154.474C78.3614 157.576 77.4026 161.395 79.4401 163.781C79.4401 163.781 80.1591 174.281 82.9157 174.997C85.6722 175.713 92.983 176.548 95.6197 173.088C96.3917 172.059 96.9307 170.875 97.1996 169.619C97.4686 168.362 97.4611 167.063 97.1777 165.809H95.9792L92.7433 156.622Z" fill="#2F9E44"/>
<path opacity="0.1" d="M80.6387 164.616C80.6387 164.616 82.6761 165.571 86.8708 164.974V166.764L80.6387 166.287V164.616Z" fill="black"/>
<path d="M95.8645 170.599L94.5078 169.885L100.542 158.517C100.769 158.09 100.882 157.613 100.872 157.13C100.861 156.647 100.728 156.175 100.483 155.759C100.238 155.342 99.8909 154.994 99.4736 154.748C99.0563 154.502 98.583 154.366 98.0983 154.353L91.7656 154.184L91.8068 152.656L98.1396 152.826C98.8852 152.846 99.6134 153.055 100.255 153.433C100.897 153.812 101.431 154.347 101.808 154.988C102.184 155.629 102.39 156.355 102.406 157.097C102.422 157.84 102.247 158.574 101.899 159.231L95.8645 170.599Z" fill="#2F9E44"/>
<path d="M81.2807 170.599L75.2464 159.231C74.8979 158.574 74.7234 157.84 74.7393 157.097C74.7552 156.355 74.9611 155.629 75.3374 154.988C75.7137 154.347 76.2481 153.812 76.8899 153.433C77.5318 153.055 78.2599 152.846 79.0055 152.826L85.3383 152.656L85.3796 154.184L79.0468 154.353C78.5621 154.366 78.0888 154.502 77.6715 154.748C77.2542 154.994 76.9069 155.342 76.6622 155.759C76.4176 156.175 76.2838 156.647 76.2734 157.13C76.2631 157.613 76.3765 158.09 76.6031 158.517L82.6374 169.885L81.2807 170.599Z" fill="#2F9E44"/>
<path d="M113.862 163.693C114.605 162.294 111.58 159.25 107.105 156.894C102.631 154.537 98.401 153.76 97.658 155.159C96.9149 156.557 99.9399 159.601 104.415 161.958C108.889 164.315 113.119 165.091 113.862 163.693Z" fill="#2F2E41"/>
</g>
</svg>
